<svg xmlns="http://www.w3.org/2000/svg"><symbol id="icon-menu" viewBox="0 0 24 24"><path stroke="#000" strokeLinecap="round" stroke-miterlimit="10" stroke-width="1.5" d="M3 10h18M3 6h18M3 14h18M3 18h18"/></symbol><symbol id="icon-search" viewBox="0 0 24 24"><path fill-rule="evenodd" d="M15.507 14.006h-.79l-.28-.27a6.475 6.475 0 0 0 1.57-4.232 6.504 6.504 0 1 0-6.503 6.503c1.61 0 3.091-.59 4.232-1.57l.27.28v.79L19.01 20.5l1.491-1.49-4.993-5.004zm-6.003 0A4.497 4.497 0 0 1 5 9.504 4.497 4.497 0 0 1 9.504 5a4.497 4.497 0 0 1 4.502 4.503 4.497 4.497 0 0 1-4.502 4.502z"/></symbol></svg>